<svg id="Layer_1" data-name="Layer 1" xmlns="http://www.w3.org/2000/svg" viewBox="0 0 1476.11 288.5"><defs><style>.cls-1{fill:none;}.cls-2{fill:#1e22aa;}</style></defs><title>4dotnet_mark</title><path class="cls-1" d="M354.09,107.72q-25.11,0-41.77,17.35T295.66,169.8q0,27.84,16.44,45.19t42,17.34q24.65,0,40.85-16.43t16.21-45.65q0-29.2-16.44-45.87T354.09,107.72Z"/><path class="cls-1" d="M1256.94,114.34q-13.93-12.56-34.46-12.55a51.48,51.48,0,0,0-34.24,12.32q-14.61,12.33-19.62,33.32h102.7Q1270.86,126.9,1256.94,114.34Z"/><path class="cls-1" d="M604.5,108.18q-25.56,0-42,17.57t-16.43,44.5q0,26.49,16.43,43.82t42,17.35q25.11,0,41.77-17.35t16.66-43.82q0-26.46-16.66-44.27T604.5,108.18Z"/><path class="cls-2" d="M235.34,144.25H192.56V72h-72.2v72.22H72.22V.07H0V216.46H120.36v66.61h72.2V216.46H240.7q-7.56-21-7.57-46.21A148.08,148.08,0,0,1,235.34,144.25Z"/><path d="M410.23,79Q385.59,52,342.68,52q-47.48,0-78.51,33.54-22.77,24.61-28.83,58.67a148.08,148.08,0,0,0-2.21,26q0,25.26,7.57,46.21a112.35,112.35,0,0,0,23.47,38.47q31,33.54,78.51,33.55,49.29,0,72.57-33.33V283h56.6V0H410.23ZM394.94,215.9q-16.2,16.42-40.85,16.43-25.57,0-42-17.34T295.66,169.8q0-27.39,16.66-44.73t41.77-17.35q24.2,0,40.62,16.66t16.44,45.87Q411.15,199.47,394.94,215.9Z"/><path d="M690.55,86.27q-36.3-35.14-86-34.23-49.75-.91-85.81,34.23T483.55,169.8q-.93,48.39,34.91,83.76T604.05,288q49.74.9,86.27-34.46t35.6-83.76Q726.84,121.43,690.55,86.27Zm-44.28,127.8q-16.66,17.35-41.77,17.35-25.56,0-42-17.35t-16.43-43.82q0-26.92,16.43-44.5t42-17.57q25.11,0,41.77,17.8t16.66,44.27Q662.93,196.74,646.27,214.07Z"/><path d="M809.53,225.26q-9.82-8-9.82-27.16v-89h63.91v-52H799.71V0H738.09V203.58q0,42,23.51,63.44t66.87,21.46A174.8,174.8,0,0,0,870.92,283V231.42q-21.46,1.83-29.21,1.82Q819.34,233.24,809.53,225.26Z"/><path d="M1446.9,233.24q-22.37,0-32.18-8t-9.81-27.16v-89h63.9v-52h-63.9V0h-61.62V203.58q0,42,23.51,63.44t66.86,21.46a174.8,174.8,0,0,0,42.45-5.48V231.42Q1454.66,233.25,1446.9,233.24Z"/><path d="M1010.74,52q-40.63,0-66.18,25.56V57.06H888V283h61.62V151.08q0-19.62,12.09-31.72t30.81-12.09q18.72,0,30.36,12.09t11.64,31.72V283h61.16V142.87q0-41.53-22.82-66.19T1010.74,52Z"/><path d="M1224.76,52q-48.84-.91-84,34.23t-34.23,84q-.91,49.31,35.37,84.22t88.33,34q49.74,0,90.37-33.78l-25.56-42q-29.67,22.83-63,22.83-24.64,0-41.31-11.64t-22.13-33.09H1327a146.36,146.36,0,0,0,4.11-33.78q0-44.73-29.89-74.86T1224.76,52Zm-56.14,95.39q5-21,19.62-33.32a51.48,51.48,0,0,1,34.24-12.32q20.54,0,34.46,12.55t14.38,33.09Z"/></svg>